<?xml version="1.0" encoding="UTF-8" standalone="no"?>
<!-- Created with Inkscape (http://www.inkscape.org/) -->

<svg
   xmlns:dc="http://purl.org/dc/elements/1.1/"
   xmlns:cc="http://creativecommons.org/ns#"
   xmlns:rdf="http://www.w3.org/1999/02/22-rdf-syntax-ns#"
   xmlns:svg="http://www.w3.org/2000/svg"
   xmlns="http://www.w3.org/2000/svg"
   version="1.1"
   width="267.19971"
   height="464.59821"
   id="svg2">
  <metadata
     id="metadata8">
    <rdf:RDF>
      <cc:Work
         rdf:about="">
        <dc:format>image/svg+xml</dc:format>
        <dc:type
           rdf:resource="http://purl.org/dc/dcmitype/StillImage" />
        <dc:title></dc:title>
      </cc:Work>
    </rdf:RDF>
  </metadata>
  <defs
     id="defs6" />
  <path
     d="m 239.5,445.1 0,-19.5 -11.05,0 -11.05,0 0,-149.85 0,-149.85 11.05,0 11.05,0 0,-37.25 0,-37.25 2.7999,0 2.7998,0 0.025,37.225 0.025,37.225 11.025,0.025 11.025,0.025 0,149.8491 0,149.8491 -11.025,0.025 -11.025,0.025 -0.025,19.475 -0.025,19.475 -2.7997,0 -2.7998,0 0,-19.5 z m 22.05,-169.35 0,-142.1 -19.1188,-0.024 c -10.5153,-0.013 -19.1891,0 -19.275,0.036 -0.1415,0.054 -0.1562,13.4184 -0.1562,141.991 0,78.0621 0.027,142.0024 0.061,142.0896 0.055,0.1439 1.8187,0.1561 19.275,0.1331 l 19.2142,-0.025 0,-142.1 z m -96.65,108.4 0,-22.55 -11.05,0 -11.05,0 0,-91.3 0,-91.3 11.05,0 11.05,0 0,-22.7 0,-22.7 2.8,0 2.8,0 0,22.7 0,22.7 11.05,0 11.05,0 0,91.2996 0,91.2995 -11.025,0.025 -11.025,0.025 -0.025,22.525 -0.025,22.525 -2.7998,0 -2.7998,0 0,-22.55 z m -58.2,-217.3 0,-70.45 2.85,0 2.85,0 0,70.45 0,70.45 -2.85,0 -2.85,0 0,-70.45 z m -53.3,-46.2 0,-70.45 2.8,0 2.8,0 0,70.45 0,70.45 -2.8,0 -2.8,0 0,-70.45 z M 0,70.45 0,0 l 2.8,0 2.8,0 0,70.45 0,70.45 -2.8,0 -2.8,0 0,-70.45 z"
     id="path2987"
     style="fill:#000000" />
</svg>
