<?xml version="1.0" encoding="UTF-8" standalone="no"?>
<svg xmlns="http://www.w3.org/2000/svg" width="400" height="354" version="1.0">
  <g fill="#dfb040" fill-opacity=".55707762">
    <path fill-rule="evenodd" stroke="#000" stroke-width="16.875" d="M216.3738645 56.49589575 332.526466 25.372911M66.896816 96.548136l117.360009-31.4465085m3.031504-50.505552 7.8939795 29.460743m4.8176895 32.7214775v212"/>
    <path stroke="#000" stroke-linejoin="round" stroke-width="16.87498474" d="M218.157291 59.028269a18.157296 18.157296 0 1 1-36.314592 0 18.157296 18.157296 0 1 1 36.314592 0z"/>
    <path fill="#000" fill-opacity=".01369863" fill-rule="evenodd" stroke="#070505" stroke-linejoin="bevel" stroke-width="11.875" d="m31.828426 191.949866 39.5-99.999998 39.500002 99.999998"/>
    <path fill="#000" fill-opacity=".98173517" stroke="#c73639" stroke-linejoin="bevel" stroke-opacity=".10045662" stroke-width="11.875" d="M128.328426 186.949868a57 57 0 1 1-114 0"/>
    <g fill="#000" fill-opacity=".98173517" stroke="#c73639" stroke-linejoin="bevel" stroke-opacity=".84474888" stroke-width="11.875">
      <path fill-opacity=".07762557" fill-rule="evenodd" stroke="#030203" stroke-opacity=".94063926" d="m287.000028 127.778288 39.5-100 39.5 100"/>
      <path fill-opacity="1" stroke="#4aeaec" stroke-opacity=".88584477" d="M383.500028 122.778288a57 57 0 1 1-114 0"/>
    </g>
    <path fill="none" stroke="#041700" stroke-linecap="round" stroke-opacity=".98173517" stroke-width="16.875" d="M362.771178 308.644786c.86656-1.11268-2.82842-11.66727-12.37436-11.66727-9.54595 0-17.67768 7.07107-17.67768 18.03123 0 10.96015 8.83885 24.39518 24.74874 24.39518 15.90991 0 28.28428-15.9099 28.28428-29.34493 0-13.43503-7.70076-35.00178-33.58758-35.00178-20.70602 0-38.75556 13.72108-55.75556 13.72108h-192.81804c-16.99999 0-35.049542-13.72108-55.755564-13.72108-25.886817 0-33.587571 21.56675-33.587571 35.00178 0 13.43503 12.374368 29.34493 28.28427 29.34493 15.909903 0 24.748738-13.43503 24.748738-24.39518 0-10.96016-8.131728-18.03123-17.67767-18.03123-9.545941 0-13.240914 10.55459-12.374369 11.66727"/>
  </g>
</svg>