<?xml version="1.0" encoding="UTF-8" standalone="no"?>
<!-- Created with Inkscape (http://www.inkscape.org/) -->
<svg
   xmlns:svg="http://www.w3.org/2000/svg"
   xmlns="http://www.w3.org/2000/svg"
   version="1.0"
   width="865.17999"
   height="692.66663"
   id="svg1923">
  <defs
     id="defs1926">
    <marker
       refX="0"
       refY="0"
       orient="auto"
       style="overflow:visible"
       id="Arrow2Lstart">
      <path
         d="M 8.7185878,4.0337352 L -2.2072895,0.016013256 L 8.7185884,-4.0017078 C 6.97309,-1.6296469 6.9831476,1.6157441 8.7185878,4.0337352 z "
         transform="matrix(1.1,0,0,1.1,1.1,0)"
         style="font-size:12px;fill-rule:evenodd;stroke-width:0.625;stroke-linejoin:round"
         id="path2915" />
    </marker>
  </defs>
  <g
     id="g2404">
    <g
       id="g2112">
      <path
         d="M 28.228191,364.4114 L 157.44492,228.46463 L 213.97724,286.34296 L 341.84796,145.01216 L 397.03428,208.27451 L 532.98104,65.597709 L 654.12173,205.5825 L 714.69207,147.70417 L 839.87078,286.34296"
         style="fill:none;fill-rule:evenodd;stroke:black;stroke-width:1px;stroke-linecap:butt;stroke-linejoin:miter;stroke-opacity:1"
         id="path1940" />
      <path
         d="M 30.920206,519.20227 L 63.224389,462.66995 L 80.722488,481.51406 L 110.33466,422.28972 L 127.83275,441.13383 L 157.44492,379.21748 L 178.98104,419.59771 L 197.82515,402.09961 L 216.66926,437.09581 L 246.28142,377.87147 L 263.77952,399.40759 L 293.39169,337.49124 L 313.5818,356.33535 L 343.19397,301.14904 L 360.69207,336.14524 L 383.5742,315.95512 L 399.72629,356.33535 L 430.68447,295.76501 L 452.22059,319.99315 L 477.79473,256.73079 L 499.33085,279.61292 L 531.63504,217.69657 L 559.9012,276.9209 L 581.43732,256.73079 L 607.01146,317.30113 L 628.54758,295.76501 L 656.81374,356.33535 L 678.34987,317.30113 L 693.15595,336.14524 L 714.69207,297.11102 L 744.30424,357.68136 L 764.49435,334.79923 L 794.10652,398.06159 L 812.95063,376.52547 L 845.25481,439.78782"
         style="fill:none;fill-rule:evenodd;stroke:black;stroke-width:1px;stroke-linecap:butt;stroke-linejoin:miter;stroke-opacity:1"
         id="path1942" />
      <path
         d="M 30.337058,669.9131 L 36.52357,648.49825 L 41.282425,654.20887 L 47.468938,626.13163 L 52.703679,633.26991 L 58.890191,608.52386 L 66.028474,621.84866 L 72.214986,614.71037 L 80.305041,629.93871 L 85.063896,608.04797 L 91.726294,614.23449 L 97.436921,584.72958 L 102.19578,593.29552 L 106.47875,567.5977 L 114.09292,582.82604 L 119.80354,576.16364 L 125.99005,587.5849 L 132.65245,565.21828 L 137.88719,574.73599 L 145.50136,549.51405 L 150.26022,557.60411 L 156.92262,530.47863 L 158.82616,544.27931 L 165.01267,538.0928 L 168.81975,558.07999 L 174.53038,551.41759 L 178.33747,570.45302 L 186.90341,552.36937 L 190.2346,562.83885 L 196.42112,549.98994 L 201.17997,567.5977 L 205.93883,562.83885 L 208.31826,579.97073 L 214.50477,573.78422 L 217.36008,591.39198 L 224.97425,571.40479 L 229.25722,576.63953 L 237.34727,548.56228 L 240.67847,556.17645 L 247.34087,530.95452 L 254.47915,543.80343 L 259.7139,535.71337 L 267.32806,551.89348 L 273.51458,528.0992 L 277.79755,535.23749 L 285.8876,506.68435 L 291.59823,514.29852 L 294.92943,493.83544 L 298.26062,500.02195 L 305.87479,495.73898 L 311.58542,510.49144 L 319.19959,487.17304 L 327.95844,494.78721 L 333.47616,476.70356 L 337.75913,480.98653 L 343.94564,454.81283 L 348.70449,468.13762 L 352.98746,463.37877 L 357.27043,481.46242 L 361.5534,475.27591 L 364.40872,492.40779 L 371.547,476.70356 L 376.30586,484.31773 L 384.8718,470.99294 L 386.29945,486.69716 L 393.91362,480.98653 L 397.24482,499.54607 L 401.52779,494.31133 L 404.85899,510.01555 L 411.52139,490.98013 L 414.85259,496.21487 L 422.94264,469.08939 L 429.12915,479.08299 L 434.36389,452.90928 L 440.07452,465.75819 L 446.73692,458.14403 L 454.35109,473.84825 L 461.01348,448.62631 L 465.77234,455.7646 L 473.38651,429.59089 L 477.19359,434.82563 L 483.85599,414.83844 L 488.61485,425.30792 L 494.80136,418.64552 L 502.41553,431.01855 L 510.0297,408.65193 L 516.21621,417.21787 L 521.45095,393.89948 L 525.73392,400.08599 L 535.25163,369.15343 L 540.01049,390.56828 L 546.67288,386.76119 L 552.38351,413.41078 L 559.04591,407.70016 L 562.37711,431.01855 L 569.51539,420.07318 L 574.27425,427.68735 L 583.31607,414.36255 L 588.55081,432.44621 L 594.26144,427.68735 L 599.97207,453.38517 L 604.25504,449.1022 L 608.53801,470.51705 L 615.2004,461.47522 L 619.95926,468.13762 L 628.04931,456.24048 L 634.71171,478.6071 L 640.42234,472.42059 L 644.70531,490.50424 L 650.41593,485.74539 L 658.50599,513.82264 L 659.93364,498.5943 L 665.16839,503.35315 L 668.97547,484.79362 L 675.16198,488.6007 L 679.44495,475.75179 L 684.67969,484.79362 L 689.43855,479.08299 L 697.5286,492.40779 L 701.81157,479.55888 L 706.09454,484.79362 L 709.42574,469.56528 L 714.1846,473.84825 L 720.37111,456.71637 L 725.12997,482.89007 L 730.36471,475.27591 L 735.12356,499.07018 L 741.78596,492.40779 L 747.0207,513.82264 L 755.11076,500.02195 L 760.3455,506.68435 L 767.48378,497.16664 L 772.24264,518.58149 L 777.47738,512.87086 L 782.23623,540.47223 L 786.99509,534.7616 L 793.65749,555.70056 L 801.27165,540.47223 L 807.45817,548.56228 L 815.07234,533.80983 L 820.78296,562.83885 L 824.59005,556.17645 L 831.72833,582.35016 L 837.43896,577.5913 L 841.24604,598.05438"
         style="fill:none;fill-rule:evenodd;stroke:black;stroke-width:1px;stroke-linecap:butt;stroke-linejoin:miter;stroke-opacity:1"
         id="path1944" />
      <g
         id="g1988">
        <path
           d="M 8.6875,2.9375 L 8.6875,681.75 L 10.90625,681.75 L 10.90625,2.9375 L 8.6875,2.9375 z "
           style="fill:black;fill-opacity:1;fill-rule:evenodd;stroke:none;stroke-width:2.20805764;stroke-linecap:butt;stroke-linejoin:miter;stroke-miterlimit:4;stroke-dasharray:none;stroke-opacity:1"
           id="path2941" />
        <path
           d="M -1.7505551e-008,26.537464 L 9.7584978,1.2783037e-008 L 19.516993,26.537465 C 13.755582,22.297888 5.8729701,22.322316 -1.7505551e-008,26.537464 z "
           style="font-size:12px;fill-rule:evenodd;stroke-width:0.625;stroke-linejoin:round"
           id="path1994" />
      </g>
      <path
         d="M 861.91408,681.84857 L 8.6796728,681.84857"
         style="fill:none;fill-rule:evenodd;stroke:black;stroke-width:2.45760107;stroke-linecap:butt;stroke-linejoin:miter;marker-start:url(#Arrow2Lstart);marker-end:none;stroke-miterlimit:4;stroke-dasharray:none;stroke-opacity:1"
         id="path2110" />
    </g>
    <path
       d="M 157.62695,188.85161 L 157.62695,191.21685 L 144.37891,191.21685 C 144.36068,190.6244 144.45638,190.05474 144.66602,189.50786 C 145.00325,188.60552 145.54329,187.71685 146.28613,186.84185 C 147.02897,185.96685 148.10221,184.95513 149.50586,183.80669 C 151.68424,182.02024 153.15624,180.6052 153.92188,179.56157 C 154.68749,178.51797 155.0703,177.53131 155.07031,176.60161 C 155.0703,175.62637 154.72167,174.80378 154.02441,174.13384 C 153.32714,173.46393 152.41796,173.12897 151.29688,173.12896 C 150.11197,173.12897 149.16406,173.48444 148.45313,174.19536 C 147.74218,174.90632 147.38216,175.89069 147.37305,177.14849 L 144.84375,176.88872 C 145.01693,175.00202 145.66862,173.56419 146.79883,172.57524 C 147.92903,171.58633 149.44661,171.09187 151.35156,171.09185 C 153.27473,171.09187 154.79686,171.62507 155.91797,172.69146 C 157.03905,173.75788 157.5996,175.07949 157.59961,176.6563 C 157.5996,177.4584 157.43553,178.24681 157.10742,179.02153 C 156.77928,179.79628 156.23469,180.61204 155.47363,181.4688 C 154.71255,182.32558 153.44791,183.50136 151.67969,184.99614 C 150.20312,186.23573 149.2552,187.07655 148.83594,187.5186 C 148.41666,187.96066 148.07031,188.405 147.79688,188.85161 L 157.62695,188.85161 z "
       transform="translate(67.00991,124.3564)"
       style="font-size:28px;font-style:normal;font-variant:normal;font-weight:normal;font-stretch:normal;text-align:start;line-height:100%;writing-mode:lr-tb;text-anchor:start;font-family:Arial"
       id="flowRoot2176" />
    <path
       d="M 144.70703,185.92583 L 147.16797,185.59771 C 147.45052,186.99224 147.93131,187.99712 148.61035,188.61235 C 149.28938,189.22759 150.11653,189.53521 151.0918,189.53521 C 152.24934,189.53521 153.22688,189.13417 154.02441,188.33208 C 154.82193,187.53 155.22069,186.53651 155.2207,185.35161 C 155.22069,184.22141 154.85155,183.28944 154.11328,182.55571 C 153.37499,181.822 152.43619,181.45514 151.29688,181.45513 C 150.83202,181.45514 150.25325,181.54628 149.56055,181.72856 L 149.83398,179.56841 C 149.99804,179.58665 150.1302,179.59576 150.23047,179.59575 C 151.27864,179.59576 152.222,179.32233 153.06055,178.77544 C 153.89908,178.22858 154.31835,177.38548 154.31836,176.24614 C 154.31835,175.34381 154.01301,174.59642 153.40234,174.00396 C 152.79166,173.41153 152.00325,173.1153 151.03711,173.11528 C 150.08007,173.1153 149.28255,173.41608 148.64453,174.01763 C 148.00651,174.61921 147.59635,175.52155 147.41406,176.72466 L 144.95313,176.28716 C 145.2539,174.63744 145.9375,173.35912 147.00391,172.4522 C 148.07031,171.54532 149.39648,171.09187 150.98242,171.09185 C 152.07616,171.09187 153.08332,171.32657 154.00391,171.79595 C 154.92447,172.26537 155.62857,172.90567 156.11621,173.71685 C 156.60383,174.52806 156.84764,175.38939 156.84766,176.30083 C 156.84764,177.16673 156.61522,177.95514 156.15039,178.66606 C 155.68553,179.37701 154.99738,179.94212 154.08594,180.36138 C 155.27082,180.63483 156.19139,181.20221 156.84766,182.06353 C 157.50389,182.92486 157.83202,184.00266 157.83203,185.29692 C 157.83202,187.04693 157.194,188.53033 155.91797,189.74712 C 154.64192,190.96392 153.02864,191.57231 151.07813,191.57231 C 149.319,191.57231 147.85839,191.04823 146.69629,190.00005 C 145.53418,188.95187 144.87109,187.5938 144.70703,185.92583 L 144.70703,185.92583 z "
       transform="translate(192.1112,-54.73611)"
       style="font-size:28px;font-style:normal;font-variant:normal;font-weight:normal;font-stretch:normal;text-align:start;line-height:100%;writing-mode:lr-tb;text-anchor:start;font-family:Arial"
       id="flowRoot2184" />
    <path
       d="M 152.58203,191.21685 L 152.58203,186.41802 L 143.88672,186.41802 L 143.88672,184.16216 L 153.0332,171.17388 L 155.04297,171.17388 L 155.04297,184.16216 L 157.75,184.16216 L 157.75,186.41802 L 155.04297,186.41802 L 155.04297,191.21685 L 152.58203,191.21685 z M 152.58203,184.16216 L 152.58203,175.12505 L 146.30664,184.16216 L 152.58203,184.16216 z "
       transform="translate(248.7361,45.345)"
       style="font-size:28px;font-style:normal;font-variant:normal;font-weight:normal;font-stretch:normal;text-align:start;line-height:100%;writing-mode:lr-tb;text-anchor:start;font-family:Arial"
       id="flowRoot2192" />
    <path
       d="M 144.69336,185.96685 L 147.27734,185.7481 C 147.46875,187.00591 147.91308,187.95155 148.61035,188.58501 C 149.30761,189.21848 150.14843,189.53521 151.13281,189.53521 C 152.3177,189.53521 153.3203,189.08859 154.14063,188.19536 C 154.96093,187.30214 155.37108,186.11724 155.37109,184.64067 C 155.37108,183.23704 154.97688,182.12962 154.18848,181.31841 C 153.40006,180.50722 152.36783,180.10162 151.0918,180.10161 C 150.29882,180.10162 149.58333,180.28164 148.94531,180.64165 C 148.30729,181.00169 147.80599,181.46881 147.44141,182.04302 L 145.13086,181.74224 L 147.07227,171.44731 L 157.03906,171.44731 L 157.03906,173.79888 L 149.04102,173.79888 L 147.96094,179.1856 C 149.16406,178.34707 150.42643,177.9278 151.74805,177.92778 C 153.49804,177.9278 154.9746,178.53392 156.17773,179.74614 C 157.38085,180.95839 157.98241,182.51698 157.98242,184.42192 C 157.98241,186.23573 157.45376,187.80344 156.39648,189.12505 C 155.11132,190.74745 153.35676,191.55864 151.13281,191.55864 C 149.30989,191.55864 147.82194,191.04823 146.66895,190.02739 C 145.51595,189.00656 144.85742,187.65305 144.69336,185.96685 L 144.69336,185.96685 z "
       transform="translate(384.3724,-135.0644)"
       style="font-size:28px;font-style:normal;font-variant:normal;font-weight:normal;font-stretch:normal;text-align:start;line-height:100%;writing-mode:lr-tb;text-anchor:start;font-family:Arial"
       id="flowRoot2200" />
    <path
       d="M 143.49023,191.21685 L 151.1875,171.17388 L 154.04492,171.17388 L 162.24805,191.21685 L 159.22656,191.21685 L 156.88867,185.14653 L 148.50781,185.14653 L 146.30664,191.21685 L 143.49023,191.21685 z M 149.27344,182.98638 L 156.06836,182.98638 L 153.97656,177.4356 C 153.33853,175.74941 152.86457,174.364 152.55469,173.27935 C 152.29947,174.56452 151.93944,175.84056 151.47461,177.10747 L 149.27344,182.98638 z "
       transform="translate(506.84,41.39443)"
       style="font-size:28px;font-style:normal;font-variant:normal;font-weight:normal;font-stretch:normal;text-align:start;line-height:100%;writing-mode:lr-tb;text-anchor:start;font-family:Arial"
       id="flowRoot2208" />
    <path
       d="M 145.58203,191.21685 L 145.58203,171.17388 L 153.10156,171.17388 C 154.6328,171.1739 155.86099,171.3767 156.78613,171.78228 C 157.71125,172.18789 158.43586,172.81224 158.95996,173.65532 C 159.48403,174.49844 159.74608,175.38027 159.74609,176.30083 C 159.74608,177.15762 159.51366,177.96425 159.04883,178.72075 C 158.58397,179.47727 157.88215,180.08795 156.94336,180.55278 C 158.15558,180.90826 159.08755,181.51438 159.73926,182.37114 C 160.39093,183.22792 160.71678,184.23964 160.7168,185.4063 C 160.71678,186.34511 160.51854,187.21783 160.12207,188.02446 C 159.72557,188.83111 159.23566,189.45318 158.65234,189.89067 C 158.069,190.32817 157.33755,190.65858 156.45801,190.88188 C 155.57844,191.10519 154.50064,191.21685 153.22461,191.21685 L 145.58203,191.21685 z M 148.23438,179.59575 L 152.56836,179.59575 C 153.74413,179.59576 154.58723,179.51829 155.09766,179.36333 C 155.77212,179.16282 156.28026,178.83014 156.62207,178.36528 C 156.96385,177.90045 157.13475,177.31712 157.13477,176.61528 C 157.13475,175.94993 156.97525,175.36432 156.65625,174.85845 C 156.33723,174.3526 155.8815,174.00625 155.28906,173.81938 C 154.6966,173.63255 153.68033,173.53913 152.24023,173.53911 L 148.23438,173.53911 L 148.23438,179.59575 z M 148.23438,188.85161 L 153.22461,188.85161 C 154.08137,188.85161 154.68293,188.81971 155.0293,188.75591 C 155.63996,188.64654 156.15038,188.46424 156.56055,188.20903 C 156.97069,187.95383 157.30793,187.58241 157.57227,187.09478 C 157.83657,186.60715 157.96874,186.04433 157.96875,185.4063 C 157.96874,184.65891 157.77733,184.0095 157.39453,183.45806 C 157.01171,182.90663 156.48078,182.51926 155.80176,182.29595 C 155.12271,182.07265 154.14517,181.961 152.86914,181.96099 L 148.23438,181.96099 L 148.23438,188.85161 z "
       transform="translate(564.7817,-49.46868)"
       style="font-size:28px;font-style:normal;font-variant:normal;font-weight:normal;font-stretch:normal;text-align:start;line-height:100%;writing-mode:lr-tb;text-anchor:start;font-family:Arial"
       id="flowRoot2216" />
    <path
       d="M 159.99219,184.1895 L 162.64453,184.85942 C 162.08852,187.03781 161.0882,188.69894 159.64355,189.84282 C 158.19888,190.9867 156.43293,191.55864 154.3457,191.55864 C 152.18554,191.55864 150.4287,191.11886 149.0752,190.23931 C 147.72168,189.35975 146.69173,188.08599 145.98535,186.41802 C 145.27897,184.75006 144.92578,182.95904 144.92578,181.04497 C 144.92578,178.95774 145.32454,177.13711 146.12207,175.58306 C 146.91959,174.02904 148.05436,172.8487 149.52637,172.04204 C 150.99836,171.23542 152.61848,170.8321 154.38672,170.83208 C 156.39191,170.8321 158.07811,171.34252 159.44531,172.36333 C 160.81248,173.38418 161.76496,174.81973 162.30273,176.66997 L 159.69141,177.28521 C 159.22655,175.82689 158.55207,174.76504 157.66797,174.09966 C 156.78384,173.43431 155.67186,173.10163 154.33203,173.10161 C 152.79166,173.10163 151.50422,173.47077 150.46973,174.20903 C 149.43522,174.94733 148.70833,175.93854 148.28906,177.18267 C 147.86979,178.42682 147.66015,179.7097 147.66016,181.0313 C 147.66015,182.73573 147.90852,184.22369 148.40527,185.49517 C 148.90201,186.76666 149.67447,187.71685 150.72266,188.34575 C 151.77083,188.97466 152.90559,189.28911 154.12695,189.28911 C 155.61262,189.28911 156.87043,188.86073 157.90039,188.00396 C 158.93032,187.14719 159.62759,185.87571 159.99219,184.1895 L 159.99219,184.1895 z "
       transform="translate(689.8831,120.4059)"
       style="font-size:28px;font-style:normal;font-variant:normal;font-weight:normal;font-stretch:normal;text-align:start;line-height:100%;writing-mode:lr-tb;text-anchor:start;font-family:Arial"
       id="flowRoot2224" />
    <path
       d="M 144.69336,185.96685 L 147.27734,185.7481 C 147.46875,187.00591 147.91308,187.95155 148.61035,188.58501 C 149.30761,189.21848 150.14843,189.53521 151.13281,189.53521 C 152.3177,189.53521 153.3203,189.08859 154.14063,188.19536 C 154.96093,187.30214 155.37108,186.11724 155.37109,184.64067 C 155.37108,183.23704 154.97688,182.12962 154.18848,181.31841 C 153.40006,180.50722 152.36783,180.10162 151.0918,180.10161 C 150.29882,180.10162 149.58333,180.28164 148.94531,180.64165 C 148.30729,181.00169 147.80599,181.46881 147.44141,182.04302 L 145.13086,181.74224 L 147.07227,171.44731 L 157.03906,171.44731 L 157.03906,173.79888 L 149.04102,173.79888 L 147.96094,179.1856 C 149.16406,178.34707 150.42643,177.9278 151.74805,177.92778 C 153.49804,177.9278 154.9746,178.53392 156.17773,179.74614 C 157.38085,180.95839 157.98241,182.51698 157.98242,184.42192 C 157.98241,186.23573 157.45376,187.80344 156.39648,189.12505 C 155.11132,190.74745 153.35676,191.55864 151.13281,191.55864 C 149.30989,191.55864 147.82194,191.04823 146.66895,190.02739 C 145.51595,189.00656 144.85742,187.65305 144.69336,185.96685 L 144.69336,185.96685 z "
       transform="translate(11.9523,179.3157)"
       style="font-size:28px;font-style:normal;font-variant:normal;font-weight:normal;font-stretch:normal;text-align:start;line-height:100%;writing-mode:lr-tb;text-anchor:start;font-family:Arial"
       id="flowRoot2232" />
    <path
       d="M 144.69336,185.96685 L 147.27734,185.7481 C 147.46875,187.00591 147.91308,187.95155 148.61035,188.58501 C 149.30761,189.21848 150.14843,189.53521 151.13281,189.53521 C 152.3177,189.53521 153.3203,189.08859 154.14063,188.19536 C 154.96093,187.30214 155.37108,186.11724 155.37109,184.64067 C 155.37108,183.23704 154.97688,182.12962 154.18848,181.31841 C 153.40006,180.50722 152.36783,180.10162 151.0918,180.10161 C 150.29882,180.10162 149.58333,180.28164 148.94531,180.64165 C 148.30729,181.00169 147.80599,181.46881 147.44141,182.04302 L 145.13086,181.74224 L 147.07227,171.44731 L 157.03906,171.44731 L 157.03906,173.79888 L 149.04102,173.79888 L 147.96094,179.1856 C 149.16406,178.34707 150.42643,177.9278 151.74805,177.92778 C 153.49804,177.9278 154.9746,178.53392 156.17773,179.74614 C 157.38085,180.95839 157.98241,182.51698 157.98242,184.42192 C 157.98241,186.23573 157.45376,187.80344 156.39648,189.12505 C 155.11132,190.74745 153.35676,191.55864 151.13281,191.55864 C 149.30989,191.55864 147.82194,191.04823 146.66895,190.02739 C 145.51595,189.00656 144.85742,187.65305 144.69336,185.96685 L 144.69336,185.96685 z "
       transform="translate(194.9954,102.938)"
       style="font-size:28px;font-style:normal;font-variant:normal;font-weight:normal;font-stretch:normal;text-align:start;line-height:100%;writing-mode:lr-tb;text-anchor:start;font-family:Arial"
       id="flowRoot2240" />
    <path
       d="M 144.69336,185.96685 L 147.27734,185.7481 C 147.46875,187.00591 147.91308,187.95155 148.61035,188.58501 C 149.30761,189.21848 150.14843,189.53521 151.13281,189.53521 C 152.3177,189.53521 153.3203,189.08859 154.14063,188.19536 C 154.96093,187.30214 155.37108,186.11724 155.37109,184.64067 C 155.37108,183.23704 154.97688,182.12962 154.18848,181.31841 C 153.40006,180.50722 152.36783,180.10162 151.0918,180.10161 C 150.29882,180.10162 149.58333,180.28164 148.94531,180.64165 C 148.30729,181.00169 147.80599,181.46881 147.44141,182.04302 L 145.13086,181.74224 L 147.07227,171.44731 L 157.03906,171.44731 L 157.03906,173.79888 L 149.04102,173.79888 L 147.96094,179.1856 C 149.16406,178.34707 150.42643,177.9278 151.74805,177.92778 C 153.49804,177.9278 154.9746,178.53392 156.17773,179.74614 C 157.38085,180.95839 157.98241,182.51698 157.98242,184.42192 C 157.98241,186.23573 157.45376,187.80344 156.39648,189.12505 C 155.11132,190.74745 153.35676,191.55864 151.13281,191.55864 C 149.30989,191.55864 147.82194,191.04823 146.66895,190.02739 C 145.51595,189.00656 144.85742,187.65305 144.69336,185.96685 L 144.69336,185.96685 z "
       transform="translate(383.3059,21.29299)"
       style="font-size:28px;font-style:normal;font-variant:normal;font-weight:normal;font-stretch:normal;text-align:start;line-height:100%;writing-mode:lr-tb;text-anchor:start;font-family:Arial"
       id="flowRoot2248" />
    <path
       d="M 144.69336,185.96685 L 147.27734,185.7481 C 147.46875,187.00591 147.91308,187.95155 148.61035,188.58501 C 149.30761,189.21848 150.14843,189.53521 151.13281,189.53521 C 152.3177,189.53521 153.3203,189.08859 154.14063,188.19536 C 154.96093,187.30214 155.37108,186.11724 155.37109,184.64067 C 155.37108,183.23704 154.97688,182.12962 154.18848,181.31841 C 153.40006,180.50722 152.36783,180.10162 151.0918,180.10161 C 150.29882,180.10162 149.58333,180.28164 148.94531,180.64165 C 148.30729,181.00169 147.80599,181.46881 147.44141,182.04302 L 145.13086,181.74224 L 147.07227,171.44731 L 157.03906,171.44731 L 157.03906,173.79888 L 149.04102,173.79888 L 147.96094,179.1856 C 149.16406,178.34707 150.42643,177.9278 151.74805,177.92778 C 153.49804,177.9278 154.9746,178.53392 156.17773,179.74614 C 157.38085,180.95839 157.98241,182.51698 157.98242,184.42192 C 157.98241,186.23573 157.45376,187.80344 156.39648,189.12505 C 155.11132,190.74745 153.35676,191.55864 151.13281,191.55864 C 149.30989,191.55864 147.82194,191.04823 146.66895,190.02739 C 145.51595,189.00656 144.85742,187.65305 144.69336,185.96685 L 144.69336,185.96685 z "
       transform="translate(508.4073,192.4843)"
       style="font-size:28px;font-style:normal;font-variant:normal;font-weight:normal;font-stretch:normal;text-align:start;line-height:100%;writing-mode:lr-tb;text-anchor:start;font-family:Arial"
       id="flowRoot2256" />
    <path
       d="M 144.70703,185.92583 L 147.16797,185.59771 C 147.45052,186.99224 147.93131,187.99712 148.61035,188.61235 C 149.28938,189.22759 150.11653,189.53521 151.0918,189.53521 C 152.24934,189.53521 153.22688,189.13417 154.02441,188.33208 C 154.82193,187.53 155.22069,186.53651 155.2207,185.35161 C 155.22069,184.22141 154.85155,183.28944 154.11328,182.55571 C 153.37499,181.822 152.43619,181.45514 151.29688,181.45513 C 150.83202,181.45514 150.25325,181.54628 149.56055,181.72856 L 149.83398,179.56841 C 149.99804,179.58665 150.1302,179.59576 150.23047,179.59575 C 151.27864,179.59576 152.222,179.32233 153.06055,178.77544 C 153.89908,178.22858 154.31835,177.38548 154.31836,176.24614 C 154.31835,175.34381 154.01301,174.59642 153.40234,174.00396 C 152.79166,173.41153 152.00325,173.1153 151.03711,173.11528 C 150.08007,173.1153 149.28255,173.41608 148.64453,174.01763 C 148.00651,174.61921 147.59635,175.52155 147.41406,176.72466 L 144.95313,176.28716 C 145.2539,174.63744 145.9375,173.35912 147.00391,172.4522 C 148.07031,171.54532 149.39648,171.09187 150.98242,171.09185 C 152.07616,171.09187 153.08332,171.32657 154.00391,171.79595 C 154.92447,172.26537 155.62857,172.90567 156.11621,173.71685 C 156.60383,174.52806 156.84764,175.38939 156.84766,176.30083 C 156.84764,177.16673 156.61522,177.95514 156.15039,178.66606 C 155.68553,179.37701 154.99738,179.94212 154.08594,180.36138 C 155.27082,180.63483 156.19139,181.20221 156.84766,182.06353 C 157.50389,182.92486 157.83202,184.00266 157.83203,185.29692 C 157.83202,187.04693 157.194,188.53033 155.91797,189.74712 C 154.64192,190.96392 153.02864,191.57231 151.07813,191.57231 C 149.319,191.57231 147.85839,191.04823 146.69629,190.00005 C 145.53418,188.95187 144.87109,187.5938 144.70703,185.92583 L 144.70703,185.92583 z "
       transform="translate(72.59608,270.3497)"
       style="font-size:28px;font-style:normal;font-variant:normal;font-weight:normal;font-stretch:normal;text-align:start;line-height:100%;writing-mode:lr-tb;text-anchor:start;font-family:Arial"
       id="flowRoot2264" />
    <path
       d="M 144.70703,185.92583 L 147.16797,185.59771 C 147.45052,186.99224 147.93131,187.99712 148.61035,188.61235 C 149.28938,189.22759 150.11653,189.53521 151.0918,189.53521 C 152.24934,189.53521 153.22688,189.13417 154.02441,188.33208 C 154.82193,187.53 155.22069,186.53651 155.2207,185.35161 C 155.22069,184.22141 154.85155,183.28944 154.11328,182.55571 C 153.37499,181.822 152.43619,181.45514 151.29688,181.45513 C 150.83202,181.45514 150.25325,181.54628 149.56055,181.72856 L 149.83398,179.56841 C 149.99804,179.58665 150.1302,179.59576 150.23047,179.59575 C 151.27864,179.59576 152.222,179.32233 153.06055,178.77544 C 153.89908,178.22858 154.31835,177.38548 154.31836,176.24614 C 154.31835,175.34381 154.01301,174.59642 153.40234,174.00396 C 152.79166,173.41153 152.00325,173.1153 151.03711,173.11528 C 150.08007,173.1153 149.28255,173.41608 148.64453,174.01763 C 148.00651,174.61921 147.59635,175.52155 147.41406,176.72466 L 144.95313,176.28716 C 145.2539,174.63744 145.9375,173.35912 147.00391,172.4522 C 148.07031,171.54532 149.39648,171.09187 150.98242,171.09185 C 152.07616,171.09187 153.08332,171.32657 154.00391,171.79595 C 154.92447,172.26537 155.62857,172.90567 156.11621,173.71685 C 156.60383,174.52806 156.84764,175.38939 156.84766,176.30083 C 156.84764,177.16673 156.61522,177.95514 156.15039,178.66606 C 155.68553,179.37701 154.99738,179.94212 154.08594,180.36138 C 155.27082,180.63483 156.19139,181.20221 156.84766,182.06353 C 157.50389,182.92486 157.83202,184.00266 157.83203,185.29692 C 157.83202,187.04693 157.194,188.53033 155.91797,189.74712 C 154.64192,190.96392 153.02864,191.57231 151.07813,191.57231 C 149.319,191.57231 147.85839,191.04823 146.69629,190.00005 C 145.53418,188.95187 144.87109,187.5938 144.70703,185.92583 L 144.70703,185.92583 z "
       transform="translate(254.3224,191.3384)"
       style="font-size:28px;font-style:normal;font-variant:normal;font-weight:normal;font-stretch:normal;text-align:start;line-height:100%;writing-mode:lr-tb;text-anchor:start;font-family:Arial"
       id="flowRoot2272" />
    <path
       d="M 144.70703,185.92583 L 147.16797,185.59771 C 147.45052,186.99224 147.93131,187.99712 148.61035,188.61235 C 149.28938,189.22759 150.11653,189.53521 151.0918,189.53521 C 152.24934,189.53521 153.22688,189.13417 154.02441,188.33208 C 154.82193,187.53 155.22069,186.53651 155.2207,185.35161 C 155.22069,184.22141 154.85155,183.28944 154.11328,182.55571 C 153.37499,181.822 152.43619,181.45514 151.29688,181.45513 C 150.83202,181.45514 150.25325,181.54628 149.56055,181.72856 L 149.83398,179.56841 C 149.99804,179.58665 150.1302,179.59576 150.23047,179.59575 C 151.27864,179.59576 152.222,179.32233 153.06055,178.77544 C 153.89908,178.22858 154.31835,177.38548 154.31836,176.24614 C 154.31835,175.34381 154.01301,174.59642 153.40234,174.00396 C 152.79166,173.41153 152.00325,173.1153 151.03711,173.11528 C 150.08007,173.1153 149.28255,173.41608 148.64453,174.01763 C 148.00651,174.61921 147.59635,175.52155 147.41406,176.72466 L 144.95313,176.28716 C 145.2539,174.63744 145.9375,173.35912 147.00391,172.4522 C 148.07031,171.54532 149.39648,171.09187 150.98242,171.09185 C 152.07616,171.09187 153.08332,171.32657 154.00391,171.79595 C 154.92447,172.26537 155.62857,172.90567 156.11621,173.71685 C 156.60383,174.52806 156.84764,175.38939 156.84766,176.30083 C 156.84764,177.16673 156.61522,177.95514 156.15039,178.66606 C 155.68553,179.37701 154.99738,179.94212 154.08594,180.36138 C 155.27082,180.63483 156.19139,181.20221 156.84766,182.06353 C 157.50389,182.92486 157.83202,184.00266 157.83203,185.29692 C 157.83202,187.04693 157.194,188.53033 155.91797,189.74712 C 154.64192,190.96392 153.02864,191.57231 151.07813,191.57231 C 149.319,191.57231 147.85839,191.04823 146.69629,190.00005 C 145.53418,188.95187 144.87109,187.5938 144.70703,185.92583 L 144.70703,185.92583 z "
       transform="translate(570.368,96.52465)"
       style="font-size:28px;font-style:normal;font-variant:normal;font-weight:normal;font-stretch:normal;text-align:start;line-height:100%;writing-mode:lr-tb;text-anchor:start;font-family:Arial"
       id="flowRoot2280" />
    <path
       d="M 144.69336,185.96685 L 147.27734,185.7481 C 147.46875,187.00591 147.91308,187.95155 148.61035,188.58501 C 149.30761,189.21848 150.14843,189.53521 151.13281,189.53521 C 152.3177,189.53521 153.3203,189.08859 154.14063,188.19536 C 154.96093,187.30214 155.37108,186.11724 155.37109,184.64067 C 155.37108,183.23704 154.97688,182.12962 154.18848,181.31841 C 153.40006,180.50722 152.36783,180.10162 151.0918,180.10161 C 150.29882,180.10162 149.58333,180.28164 148.94531,180.64165 C 148.30729,181.00169 147.80599,181.46881 147.44141,182.04302 L 145.13086,181.74224 L 147.07227,171.44731 L 157.03906,171.44731 L 157.03906,173.79888 L 149.04102,173.79888 L 147.96094,179.1856 C 149.16406,178.34707 150.42643,177.9278 151.74805,177.92778 C 153.49804,177.9278 154.9746,178.53392 156.17773,179.74614 C 157.38085,180.95839 157.98241,182.51698 157.98242,184.42192 C 157.98241,186.23573 157.45376,187.80344 156.39648,189.12505 C 155.11132,190.74745 153.35676,191.55864 151.13281,191.55864 C 149.30989,191.55864 147.82194,191.04823 146.66895,190.02739 C 145.51595,189.00656 144.85742,187.65305 144.69336,185.96685 L 144.69336,185.96685 z "
       transform="translate(696.7862,272.9835)"
       style="font-size:28px;font-style:normal;font-variant:normal;font-weight:normal;font-stretch:normal;text-align:start;line-height:100%;writing-mode:lr-tb;text-anchor:start;font-family:Arial"
       id="flowRoot2288" />
    <path
       d="M 151.0332,509.59332 L 151.0332,511.95856 L 137.78516,511.95856 C 137.76693,511.36611 137.86263,510.79645 138.07227,510.24957 C 138.4095,509.34723 138.94954,508.45856 139.69238,507.58356 C 140.43522,506.70856 141.50846,505.69684 142.91211,504.5484 C 145.09049,502.76195 146.56249,501.34691 147.32813,500.30328 C 148.09374,499.25968 148.47655,498.27302 148.47656,497.34332 C 148.47655,496.36808 148.12792,495.54549 147.43066,494.87555 C 146.73339,494.20565 145.82421,493.87068 144.70313,493.87067 C 143.51822,493.87068 142.57031,494.22615 141.85938,494.93707 C 141.14843,495.64803 140.78841,496.6324 140.7793,497.8902 L 138.25,497.63043 C 138.42318,495.74373 139.07487,494.30591 140.20508,493.31696 C 141.33528,492.32804 142.85286,491.83358 144.75781,491.83356 C 146.68098,491.83358 148.20311,492.36678 149.32422,493.43317 C 150.4453,494.49959 151.00585,495.8212 151.00586,497.39801 C 151.00585,498.20011 150.84178,498.98852 150.51367,499.76324 C 150.18553,500.538 149.64094,501.35375 148.87988,502.21051 C 148.1188,503.06729 146.85416,504.24307 145.08594,505.73785 C 143.60937,506.97744 142.66145,507.81826 142.24219,508.26032 C 141.82291,508.70238 141.47656,509.14671 141.20313,509.59332 L 151.0332,509.59332 z M 162.95508,511.95856 L 160.49414,511.95856 L 160.49414,496.27692 C 159.90169,496.84204 159.12467,497.40714 158.16309,497.97223 C 157.20149,498.53735 156.33789,498.96117 155.57227,499.24371 L 155.57227,496.86481 C 156.94856,496.21769 158.15169,495.43383 159.18164,494.51324 C 160.21158,493.59269 160.94075,492.69946 161.36914,491.83356 L 162.95508,491.83356 L 162.95508,511.95856 z "
       transform="translate(9.217997,13.16857)"
       style="font-size:28px;font-style:normal;font-variant:normal;font-weight:normal;font-stretch:normal;text-align:start;line-height:125%;writing-mode:lr-tb;text-anchor:start;font-family:Arial"
       id="flowRoot2304" />
    <path
       d="M 151.0332,509.59332 L 151.0332,511.95856 L 137.78516,511.95856 C 137.76693,511.36611 137.86263,510.79645 138.07227,510.24957 C 138.4095,509.34723 138.94954,508.45856 139.69238,507.58356 C 140.43522,506.70856 141.50846,505.69684 142.91211,504.5484 C 145.09049,502.76195 146.56249,501.34691 147.32813,500.30328 C 148.09374,499.25968 148.47655,498.27302 148.47656,497.34332 C 148.47655,496.36808 148.12792,495.54549 147.43066,494.87555 C 146.73339,494.20565 145.82421,493.87068 144.70313,493.87067 C 143.51822,493.87068 142.57031,494.22615 141.85938,494.93707 C 141.14843,495.64803 140.78841,496.6324 140.7793,497.8902 L 138.25,497.63043 C 138.42318,495.74373 139.07487,494.30591 140.20508,493.31696 C 141.33528,492.32804 142.85286,491.83358 144.75781,491.83356 C 146.68098,491.83358 148.20311,492.36678 149.32422,493.43317 C 150.4453,494.49959 151.00585,495.8212 151.00586,497.39801 C 151.00585,498.20011 150.84178,498.98852 150.51367,499.76324 C 150.18553,500.538 149.64094,501.35375 148.87988,502.21051 C 148.1188,503.06729 146.85416,504.24307 145.08594,505.73785 C 143.60937,506.97744 142.66145,507.81826 142.24219,508.26032 C 141.82291,508.70238 141.47656,509.14671 141.20313,509.59332 L 151.0332,509.59332 z M 162.95508,511.95856 L 160.49414,511.95856 L 160.49414,496.27692 C 159.90169,496.84204 159.12467,497.40714 158.16309,497.97223 C 157.20149,498.53735 156.33789,498.96117 155.57227,499.24371 L 155.57227,496.86481 C 156.94856,496.21769 158.15169,495.43383 159.18164,494.51324 C 160.21158,493.59269 160.94075,492.69946 161.36914,491.83356 L 162.95508,491.83356 L 162.95508,511.95856 z "
       transform="translate(198.6106,-66.01649)"
       style="font-size:28px;font-style:normal;font-variant:normal;font-weight:normal;font-stretch:normal;text-align:start;line-height:125%;writing-mode:lr-tb;text-anchor:start;font-family:Arial"
       id="flowRoot2312" />
    <path
       d="M 151.0332,509.59332 L 151.0332,511.95856 L 137.78516,511.95856 C 137.76693,511.36611 137.86263,510.79645 138.07227,510.24957 C 138.4095,509.34723 138.94954,508.45856 139.69238,507.58356 C 140.43522,506.70856 141.50846,505.69684 142.91211,504.5484 C 145.09049,502.76195 146.56249,501.34691 147.32813,500.30328 C 148.09374,499.25968 148.47655,498.27302 148.47656,497.34332 C 148.47655,496.36808 148.12792,495.54549 147.43066,494.87555 C 146.73339,494.20565 145.82421,493.87068 144.70313,493.87067 C 143.51822,493.87068 142.57031,494.22615 141.85938,494.93707 C 141.14843,495.64803 140.78841,496.6324 140.7793,497.8902 L 138.25,497.63043 C 138.42318,495.74373 139.07487,494.30591 140.20508,493.31696 C 141.33528,492.32804 142.85286,491.83358 144.75781,491.83356 C 146.68098,491.83358 148.20311,492.36678 149.32422,493.43317 C 150.4453,494.49959 151.00585,495.8212 151.00586,497.39801 C 151.00585,498.20011 150.84178,498.98852 150.51367,499.76324 C 150.18553,500.538 149.64094,501.35375 148.87988,502.21051 C 148.1188,503.06729 146.85416,504.24307 145.08594,505.73785 C 143.60937,506.97744 142.66145,507.81826 142.24219,508.26032 C 141.82291,508.70238 141.47656,509.14671 141.20313,509.59332 L 151.0332,509.59332 z M 162.95508,511.95856 L 160.49414,511.95856 L 160.49414,496.27692 C 159.90169,496.84204 159.12467,497.40714 158.16309,497.97223 C 157.20149,498.53735 156.33789,498.96117 155.57227,499.24371 L 155.57227,496.86481 C 156.94856,496.21769 158.15169,495.43383 159.18164,494.51324 C 160.21158,493.59269 160.94075,492.69946 161.36914,491.83356 L 162.95508,491.83356 L 162.95508,511.95856 z "
       transform="translate(386.9211,-148.9785)"
       style="font-size:28px;font-style:normal;font-variant:normal;font-weight:normal;font-stretch:normal;text-align:start;line-height:125%;writing-mode:lr-tb;text-anchor:start;font-family:Arial"
       id="flowRoot2320" />
    <path
       d="M 151.0332,509.59332 L 151.0332,511.95856 L 137.78516,511.95856 C 137.76693,511.36611 137.86263,510.79645 138.07227,510.24957 C 138.4095,509.34723 138.94954,508.45856 139.69238,507.58356 C 140.43522,506.70856 141.50846,505.69684 142.91211,504.5484 C 145.09049,502.76195 146.56249,501.34691 147.32813,500.30328 C 148.09374,499.25968 148.47655,498.27302 148.47656,497.34332 C 148.47655,496.36808 148.12792,495.54549 147.43066,494.87555 C 146.73339,494.20565 145.82421,493.87068 144.70313,493.87067 C 143.51822,493.87068 142.57031,494.22615 141.85938,494.93707 C 141.14843,495.64803 140.78841,496.6324 140.7793,497.8902 L 138.25,497.63043 C 138.42318,495.74373 139.07487,494.30591 140.20508,493.31696 C 141.33528,492.32804 142.85286,491.83358 144.75781,491.83356 C 146.68098,491.83358 148.20311,492.36678 149.32422,493.43317 C 150.4453,494.49959 151.00585,495.8212 151.00586,497.39801 C 151.00585,498.20011 150.84178,498.98852 150.51367,499.76324 C 150.18553,500.538 149.64094,501.35375 148.87988,502.21051 C 148.1188,503.06729 146.85416,504.24307 145.08594,505.73785 C 143.60937,506.97744 142.66145,507.81826 142.24219,508.26032 C 141.82291,508.70238 141.47656,509.14671 141.20313,509.59332 L 151.0332,509.59332 z M 162.95508,511.95856 L 160.49414,511.95856 L 160.49414,496.27692 C 159.90169,496.84204 159.12467,497.40714 158.16309,497.97223 C 157.20149,498.53735 156.33789,498.96117 155.57227,499.24371 L 155.57227,496.86481 C 156.94856,496.21769 158.15169,495.43383 159.18164,494.51324 C 160.21158,493.59269 160.94075,492.69946 161.36914,491.83356 L 162.95508,491.83356 L 162.95508,511.95856 z "
       transform="translate(510.7056,27.48037)"
       style="font-size:28px;font-style:normal;font-variant:normal;font-weight:normal;font-stretch:normal;text-align:start;line-height:125%;writing-mode:lr-tb;text-anchor:start;font-family:Arial"
       id="flowRoot2328" />
    <path
       d="M 151.0332,509.59332 L 151.0332,511.95856 L 137.78516,511.95856 C 137.76693,511.36611 137.86263,510.79645 138.07227,510.24957 C 138.4095,509.34723 138.94954,508.45856 139.69238,507.58356 C 140.43522,506.70856 141.50846,505.69684 142.91211,504.5484 C 145.09049,502.76195 146.56249,501.34691 147.32813,500.30328 C 148.09374,499.25968 148.47655,498.27302 148.47656,497.34332 C 148.47655,496.36808 148.12792,495.54549 147.43066,494.87555 C 146.73339,494.20565 145.82421,493.87068 144.70313,493.87067 C 143.51822,493.87068 142.57031,494.22615 141.85938,494.93707 C 141.14843,495.64803 140.78841,496.6324 140.7793,497.8902 L 138.25,497.63043 C 138.42318,495.74373 139.07487,494.30591 140.20508,493.31696 C 141.33528,492.32804 142.85286,491.83358 144.75781,491.83356 C 146.68098,491.83358 148.20311,492.36678 149.32422,493.43317 C 150.4453,494.49959 151.00585,495.8212 151.00586,497.39801 C 151.00585,498.20011 150.84178,498.98852 150.51367,499.76324 C 150.18553,500.538 149.64094,501.35375 148.87988,502.21051 C 148.1188,503.06729 146.85416,504.24307 145.08594,505.73785 C 143.60937,506.97744 142.66145,507.81826 142.24219,508.26032 C 141.82291,508.70238 141.47656,509.14671 141.20313,509.59332 L 151.0332,509.59332 z M 162.95508,511.95856 L 160.49414,511.95856 L 160.49414,496.27692 C 159.90169,496.84204 159.12467,497.40714 158.16309,497.97223 C 157.20149,498.53735 156.33789,498.96117 155.57227,499.24371 L 155.57227,496.86481 C 156.94856,496.21769 158.15169,495.43383 159.18164,494.51324 C 160.21158,493.59269 160.94075,492.69946 161.36914,491.83356 L 162.95508,491.83356 L 162.95508,511.95856 z "
       transform="translate(687.1645,109.1255)"
       style="font-size:28px;font-style:normal;font-variant:normal;font-weight:normal;font-stretch:normal;text-align:start;line-height:125%;writing-mode:lr-tb;text-anchor:start;font-family:Arial"
       id="flowRoot2336" />
    <path
       d="M 147.36914,511.95856 L 144.9082,511.95856 L 144.9082,496.27692 C 144.31575,496.84204 143.53873,497.40714 142.57715,497.97223 C 141.61556,498.53735 140.75195,498.96117 139.98633,499.24371 L 139.98633,496.86481 C 141.36263,496.21769 142.56575,495.43383 143.5957,494.51324 C 144.62564,493.59269 145.35481,492.69946 145.7832,491.83356 L 147.36914,491.83356 L 147.36914,511.95856 z M 153.69922,506.66754 L 156.16016,506.33942 C 156.4427,507.73395 156.9235,508.73883 157.60254,509.35407 C 158.28157,509.9693 159.10872,510.27692 160.08398,510.27692 C 161.24153,510.27692 162.21907,509.87588 163.0166,509.07379 C 163.81412,508.27171 164.21288,507.27822 164.21289,506.09332 C 164.21288,504.96312 163.84374,504.03116 163.10547,503.29742 C 162.36718,502.56371 161.42838,502.19685 160.28906,502.19684 C 159.82421,502.19685 159.24544,502.28799 158.55273,502.47028 L 158.82617,500.31012 C 158.99023,500.32836 159.12239,500.33748 159.22266,500.33746 C 160.27083,500.33748 161.21418,500.06404 162.05273,499.51715 C 162.89127,498.97029 163.31054,498.12719 163.31055,496.98785 C 163.31054,496.08553 163.0052,495.33813 162.39453,494.74567 C 161.78384,494.15324 160.99543,493.85701 160.0293,493.85699 C 159.07226,493.85701 158.27473,494.15779 157.63672,494.75934 C 156.99869,495.36092 156.58854,496.26326 156.40625,497.46637 L 153.94531,497.02887 C 154.24609,495.37915 154.92969,494.10083 155.99609,493.19391 C 157.0625,492.28703 158.38867,491.83358 159.97461,491.83356 C 161.06835,491.83358 162.07551,492.06828 162.99609,492.53766 C 163.91666,493.00708 164.62076,493.64738 165.1084,494.45856 C 165.59602,495.26977 165.83983,496.1311 165.83984,497.04254 C 165.83983,497.90844 165.60741,498.69685 165.14258,499.40778 C 164.67772,500.11873 163.98957,500.68383 163.07813,501.10309 C 164.26301,501.37654 165.18358,501.94392 165.83984,502.80524 C 166.49608,503.66657 166.8242,504.74437 166.82422,506.03864 C 166.8242,507.78864 166.18618,509.27204 164.91016,510.48883 C 163.6341,511.70563 162.02082,512.31403 160.07031,512.31403 C 158.31119,512.31403 156.85058,511.78994 155.68848,510.74176 C 154.52637,509.69359 153.86328,508.33551 153.69922,506.66754 L 153.69922,506.66754 z "
       transform="translate(69.55867,103.858)"
       style="font-size:28px;font-style:normal;font-variant:normal;font-weight:normal;font-stretch:normal;text-align:start;line-height:125%;writing-mode:lr-tb;text-anchor:start;font-family:Arial"
       id="flowRoot2344" />
    <path
       d="M 147.36914,511.95856 L 144.9082,511.95856 L 144.9082,496.27692 C 144.31575,496.84204 143.53873,497.40714 142.57715,497.97223 C 141.61556,498.53735 140.75195,498.96117 139.98633,499.24371 L 139.98633,496.86481 C 141.36263,496.21769 142.56575,495.43383 143.5957,494.51324 C 144.62564,493.59269 145.35481,492.69946 145.7832,491.83356 L 147.36914,491.83356 L 147.36914,511.95856 z M 153.69922,506.66754 L 156.16016,506.33942 C 156.4427,507.73395 156.9235,508.73883 157.60254,509.35407 C 158.28157,509.9693 159.10872,510.27692 160.08398,510.27692 C 161.24153,510.27692 162.21907,509.87588 163.0166,509.07379 C 163.81412,508.27171 164.21288,507.27822 164.21289,506.09332 C 164.21288,504.96312 163.84374,504.03116 163.10547,503.29742 C 162.36718,502.56371 161.42838,502.19685 160.28906,502.19684 C 159.82421,502.19685 159.24544,502.28799 158.55273,502.47028 L 158.82617,500.31012 C 158.99023,500.32836 159.12239,500.33748 159.22266,500.33746 C 160.27083,500.33748 161.21418,500.06404 162.05273,499.51715 C 162.89127,498.97029 163.31054,498.12719 163.31055,496.98785 C 163.31054,496.08553 163.0052,495.33813 162.39453,494.74567 C 161.78384,494.15324 160.99543,493.85701 160.0293,493.85699 C 159.07226,493.85701 158.27473,494.15779 157.63672,494.75934 C 156.99869,495.36092 156.58854,496.26326 156.40625,497.46637 L 153.94531,497.02887 C 154.24609,495.37915 154.92969,494.10083 155.99609,493.19391 C 157.0625,492.28703 158.38867,491.83358 159.97461,491.83356 C 161.06835,491.83358 162.07551,492.06828 162.99609,492.53766 C 163.91666,493.00708 164.62076,493.64738 165.1084,494.45856 C 165.59602,495.26977 165.83983,496.1311 165.83984,497.04254 C 165.83983,497.90844 165.60741,498.69685 165.14258,499.40778 C 164.67772,500.11873 163.98957,500.68383 163.07813,501.10309 C 164.26301,501.37654 165.18358,501.94392 165.83984,502.80524 C 166.49608,503.66657 166.8242,504.74437 166.82422,506.03864 C 166.8242,507.78864 166.18618,509.27204 164.91016,510.48883 C 163.6341,511.70563 162.02082,512.31403 160.07031,512.31403 C 158.31119,512.31403 156.85058,511.78994 155.68848,510.74176 C 154.52637,509.69359 153.86328,508.33551 153.69922,506.66754 L 153.69922,506.66754 z "
       transform="translate(256.1371,23.35203)"
       style="font-size:28px;font-style:normal;font-variant:normal;font-weight:normal;font-stretch:normal;text-align:start;line-height:125%;writing-mode:lr-tb;text-anchor:start;font-family:Arial"
       id="flowRoot2352" />
    <path
       d="M 147.36914,511.95856 L 144.9082,511.95856 L 144.9082,496.27692 C 144.31575,496.84204 143.53873,497.40714 142.57715,497.97223 C 141.61556,498.53735 140.75195,498.96117 139.98633,499.24371 L 139.98633,496.86481 C 141.36263,496.21769 142.56575,495.43383 143.5957,494.51324 C 144.62564,493.59269 145.35481,492.69946 145.7832,491.83356 L 147.36914,491.83356 L 147.36914,511.95856 z M 153.69922,506.66754 L 156.16016,506.33942 C 156.4427,507.73395 156.9235,508.73883 157.60254,509.35407 C 158.28157,509.9693 159.10872,510.27692 160.08398,510.27692 C 161.24153,510.27692 162.21907,509.87588 163.0166,509.07379 C 163.81412,508.27171 164.21288,507.27822 164.21289,506.09332 C 164.21288,504.96312 163.84374,504.03116 163.10547,503.29742 C 162.36718,502.56371 161.42838,502.19685 160.28906,502.19684 C 159.82421,502.19685 159.24544,502.28799 158.55273,502.47028 L 158.82617,500.31012 C 158.99023,500.32836 159.12239,500.33748 159.22266,500.33746 C 160.27083,500.33748 161.21418,500.06404 162.05273,499.51715 C 162.89127,498.97029 163.31054,498.12719 163.31055,496.98785 C 163.31054,496.08553 163.0052,495.33813 162.39453,494.74567 C 161.78384,494.15324 160.99543,493.85701 160.0293,493.85699 C 159.07226,493.85701 158.27473,494.15779 157.63672,494.75934 C 156.99869,495.36092 156.58854,496.26326 156.40625,497.46637 L 153.94531,497.02887 C 154.24609,495.37915 154.92969,494.10083 155.99609,493.19391 C 157.0625,492.28703 158.38867,491.83358 159.97461,491.83356 C 161.06835,491.83358 162.07551,492.06828 162.99609,492.53766 C 163.91666,493.00708 164.62076,493.64738 165.1084,494.45856 C 165.59602,495.26977 165.83983,496.1311 165.83984,497.04254 C 165.83983,497.90844 165.60741,498.69685 165.14258,499.40778 C 164.67772,500.11873 163.98957,500.68383 163.07813,501.10309 C 164.26301,501.37654 165.18358,501.94392 165.83984,502.80524 C 166.49608,503.66657 166.8242,504.74437 166.82422,506.03864 C 166.8242,507.78864 166.18618,509.27204 164.91016,510.48883 C 163.6341,511.70563 162.02082,512.31403 160.07031,512.31403 C 158.31119,512.31403 156.85058,511.78994 155.68848,510.74176 C 154.52637,509.69359 153.86328,508.33551 153.69922,506.66754 L 153.69922,506.66754 z "
       transform="translate(569.5491,-63.56052)"
       style="font-size:28px;font-style:normal;font-variant:normal;font-weight:normal;font-stretch:normal;text-align:start;line-height:125%;writing-mode:lr-tb;text-anchor:start;font-family:Arial"
       id="flowRoot2360" />
  </g>
  <path
     d="M 147.36914,210.39606 L 144.9082,210.39606 L 144.9082,194.71442 C 144.31575,195.27954 143.53873,195.84464 142.57715,196.40973 C 141.61556,196.97485 140.75195,197.39867 139.98633,197.68121 L 139.98633,195.30231 C 141.36263,194.65519 142.56575,193.87133 143.5957,192.95074 C 144.62564,192.03019 145.35481,191.13696 145.7832,190.27106 L 147.36914,190.27106 L 147.36914,210.39606 z "
     transform="translate(9.217997,6.584284)"
     style="font-size:28px;font-style:normal;font-variant:normal;font-weight:normal;font-stretch:normal;text-align:start;line-height:125%;writing-mode:lr-tb;text-anchor:start;font-family:Arial"
     id="flowRoot1984" />
</svg>
