<?xml version="1.0" encoding="UTF-8" standalone="no"?>
<!-- Created with Inkscape (http://www.inkscape.org/) -->

<svg
   xmlns:dc="http://purl.org/dc/elements/1.1/"
   xmlns:cc="http://creativecommons.org/ns#"
   xmlns:rdf="http://www.w3.org/1999/02/22-rdf-syntax-ns#"
   xmlns:svg="http://www.w3.org/2000/svg"
   xmlns="http://www.w3.org/2000/svg"
   version="1.1"
   width="462.8992"
   height="654.40002"
   id="svg2">
  <metadata
     id="metadata8">
    <rdf:RDF>
      <cc:Work
         rdf:about="">
        <dc:format>image/svg+xml</dc:format>
        <dc:type
           rdf:resource="http://purl.org/dc/dcmitype/StillImage" />
        <dc:title></dc:title>
      </cc:Work>
    </rdf:RDF>
  </metadata>
  <defs
     id="defs6" />
  <path
     d="m 373.4,644.35 0,-10.05 -11.05,0 -11.05,0 0,-27.55 0,-27.55 11.05,0 11.05,0 0,-9.55 0,-9.55 2.8,0 2.8,0 0,9.55 0,9.55 11.037,0 11.0371,0 0.044,7.375 c 0.024,4.0563 0.024,16.4538 0,27.55 l -0.044,20.175 -11.0369,0 -11.0368,0 0,10.05 0,10.05 -2.8,0 -2.8,0 0,-10.05 z"
     id="path3025"
     style="fill:#000000" />
  <path
     d="m 435.2,631.3 0,-11 -11.05,0 -11.05,0 0,-71.3 0,-71.3 11.05,0 11.05,0 0,-11.85 0,-11.85 2.7996,0 2.7996,0 0.025,11.825 0.025,11.825 11.025,0.025 11.025,0.026 0,71.2995 0,71.2996 -11.05,0 -11.05,0 0,11 0,11 -2.8,0 -2.8,0 0,-11 z"
     id="path3023"
     style="fill:#000000" />
  <path
     d="m 460,548.85 0,-66.95 -21.65,0 -21.65,0 0,66.95 0,66.95 21.65,0 21.65,0 0,-66.95 z"
     id="path3021"
     style="fill:#ffffff" />
  <path
     d="m 306.2,629.95 0,-10.05 -11.05,0 -11.05,0 0,-27.55 0,-27.55 11.05,0 11.05,0 0,-9.55 0,-9.55 2.8,0 2.8,0 0,9.55 0,9.55 11.037,0 11.0371,0 0.044,7.375 c 0.024,4.0563 0.024,16.4538 0,27.55 l -0.044,20.175 -11.0369,0 -11.0368,0 0,10.05 0,10.05 -2.8,0 -2.8,0 0,-10.05 z"
     id="path3019"
     style="fill:#000000" />
  <path
     d="m 328.2504,614.075 c 0.03,-0.1238 0.042,-9.99 0.027,-21.925 l -0.027,-21.7 -18.95,-0.028 c -10.4225,-0.016 -19.0962,0 -19.275,0.03 l -0.325,0.058 0,21.8371 c 0,17.3761 0.026,21.8474 0.125,21.8876 0.069,0.028 8.7304,0.054 19.2481,0.058 l 19.1231,0.01 0.054,-0.225 z"
     id="path3017"
     style="fill:#808080" />
  <path
     d="m 236.4,595.45 0,-10.05 -11.05,0 -11.05,0 0,-27.55 0,-27.55 11.05,0 11.05,0 0,-9.55 0,-9.55 2.825,0 2.825,0 0,9.525 0,9.525 11.012,0.025 11.0121,0.025 0.044,7.3745 c 0.024,4.0561 0.024,16.4532 0,27.5492 l -0.044,20.1745 -11.0119,0.026 -11.0118,0.025 0,10.025 0,10.025 -2.825,0 -2.825,0 0,-10.05 z"
     id="path3015"
     style="fill:#000000" />
  <path
     d="m 169,466.55 0,-12.25 -11.05,0 -11.05,0 0,-108.8 0,-108.8 11.05,0 11.05,0 0,-13.35 0,-13.35 2.8,0 2.8,0 0,13.35 0,13.35 11.05,0 11.05,0 0,108.8 0,108.8 -11.05,0 -11.05,0 0,12.25 0,12.25 -2.8,0 -2.8,0 0,-12.25 z"
     id="path3013"
     style="fill:#000000" />
  <path
     d="m 106.7,166.8516 0,-70.4516 2.8501,0 2.85,0 -0.025,70.425 -0.025,70.425 -2.825,0.027 -2.825,0.026 0,-70.4515 z"
     id="path3011"
     style="fill:#000000" />
  <path
     d="m 53.3751,120.65 0.025,-70.45 2.7998,0 2.7999,0 0,70.45 0,70.45 -2.825,0 -2.825,0 0.025,-70.45 z"
     id="path3009"
     style="fill:#000000" />
  <path
     d="M 0,70.45 0,0 l 2.8,0 2.8,0 0,70.45 0,70.45 -2.8,0 -2.8,0 0,-70.45 z"
     id="path2987"
     style="fill:#000000" />
</svg>
