<svg viewBox="0 0 400 250" role="img" aria-hidden="true" xmlns="http://www.w3.org/2000/svg">
  <defs>
    <linearGradient id="cv-indicator-index-funds-etfs-bg" x1="0" y1="0" x2="1" y2="1">
      <stop offset="0" stop-color="hsl(160,45%,13%)"/>
      <stop offset="1" stop-color="hsl(160,38%,7%)"/>
    </linearGradient>
    <clipPath id="cv-indicator-index-funds-etfs-circle">
      <circle cx="200" cy="92" r="58"/>
    </clipPath>
    <clipPath id="cv-indicator-index-funds-etfs-wedge">
      <path d="M205 178 L168 122 A66 66 0 0 1 242 122 Z"/>
    </clipPath>
  </defs>

  <rect width="400" height="250" fill="url(#cv-indicator-index-funds-etfs-bg)"/>

  <!-- shared frame texture -->
  <line x1="0" y1="212" x2="400" y2="212" stroke="white" stroke-opacity="0.10" stroke-width="1"/>
  <line x1="120" y1="20" x2="120" y2="212" stroke="white" stroke-opacity="0.05" stroke-width="1"/>
  <line x1="280" y1="20" x2="280" y2="212" stroke="white" stroke-opacity="0.05" stroke-width="1"/>
  <line x1="0" y1="60" x2="400" y2="60" stroke="white" stroke-opacity="0.05" stroke-width="1"/>

  <!-- whole-market pie: faded, tiled with company-squares -->
  <g opacity="0.5">
    <circle cx="200" cy="92" r="58" fill="hsl(160,68%,55%)" fill-opacity="0.12" stroke="hsl(160,75%,66%)" stroke-width="2" stroke-opacity="0.55"/>
    <g clip-path="url(#cv-indicator-index-funds-etfs-circle)">
      <g fill="hsl(160,68%,55%)" fill-opacity="0.28">
        <!-- dense grid of tiny identical company squares -->
        <rect x="142" y="34" width="6" height="6"/><rect x="151" y="34" width="6" height="6"/><rect x="160" y="34" width="6" height="6"/><rect x="169" y="34" width="6" height="6"/><rect x="178" y="34" width="6" height="6"/><rect x="187" y="34" width="6" height="6"/><rect x="196" y="34" width="6" height="6"/><rect x="205" y="34" width="6" height="6"/><rect x="214" y="34" width="6" height="6"/><rect x="223" y="34" width="6" height="6"/><rect x="232" y="34" width="6" height="6"/><rect x="241" y="34" width="6" height="6"/><rect x="250" y="34" width="6" height="6"/>
        <rect x="142" y="43" width="6" height="6"/><rect x="151" y="43" width="6" height="6"/><rect x="160" y="43" width="6" height="6"/><rect x="169" y="43" width="6" height="6"/><rect x="178" y="43" width="6" height="6"/><rect x="187" y="43" width="6" height="6"/><rect x="196" y="43" width="6" height="6"/><rect x="205" y="43" width="6" height="6"/><rect x="214" y="43" width="6" height="6"/><rect x="223" y="43" width="6" height="6"/><rect x="232" y="43" width="6" height="6"/><rect x="241" y="43" width="6" height="6"/><rect x="250" y="43" width="6" height="6"/>
        <rect x="142" y="52" width="6" height="6"/><rect x="151" y="52" width="6" height="6"/><rect x="160" y="52" width="6" height="6"/><rect x="169" y="52" width="6" height="6"/><rect x="178" y="52" width="6" height="6"/><rect x="187" y="52" width="6" height="6"/><rect x="196" y="52" width="6" height="6"/><rect x="205" y="52" width="6" height="6"/><rect x="214" y="52" width="6" height="6"/><rect x="223" y="52" width="6" height="6"/><rect x="232" y="52" width="6" height="6"/><rect x="241" y="52" width="6" height="6"/><rect x="250" y="52" width="6" height="6"/>
        <rect x="142" y="61" width="6" height="6"/><rect x="151" y="61" width="6" height="6"/><rect x="160" y="61" width="6" height="6"/><rect x="169" y="61" width="6" height="6"/><rect x="178" y="61" width="6" height="6"/><rect x="187" y="61" width="6" height="6"/><rect x="196" y="61" width="6" height="6"/><rect x="205" y="61" width="6" height="6"/><rect x="214" y="61" width="6" height="6"/><rect x="223" y="61" width="6" height="6"/><rect x="232" y="61" width="6" height="6"/><rect x="241" y="61" width="6" height="6"/><rect x="250" y="61" width="6" height="6"/>
        <rect x="142" y="70" width="6" height="6"/><rect x="151" y="70" width="6" height="6"/><rect x="160" y="70" width="6" height="6"/><rect x="169" y="70" width="6" height="6"/><rect x="178" y="70" width="6" height="6"/><rect x="187" y="70" width="6" height="6"/><rect x="196" y="70" width="6" height="6"/><rect x="205" y="70" width="6" height="6"/><rect x="214" y="70" width="6" height="6"/><rect x="223" y="70" width="6" height="6"/><rect x="232" y="70" width="6" height="6"/><rect x="241" y="70" width="6" height="6"/><rect x="250" y="70" width="6" height="6"/>
        <rect x="142" y="79" width="6" height="6"/><rect x="151" y="79" width="6" height="6"/><rect x="160" y="79" width="6" height="6"/><rect x="169" y="79" width="6" height="6"/><rect x="178" y="79" width="6" height="6"/><rect x="187" y="79" width="6" height="6"/><rect x="196" y="79" width="6" height="6"/><rect x="205" y="79" width="6" height="6"/><rect x="214" y="79" width="6" height="6"/><rect x="223" y="79" width="6" height="6"/><rect x="232" y="79" width="6" height="6"/><rect x="241" y="79" width="6" height="6"/><rect x="250" y="79" width="6" height="6"/>
        <rect x="142" y="88" width="6" height="6"/><rect x="151" y="88" width="6" height="6"/><rect x="160" y="88" width="6" height="6"/><rect x="169" y="88" width="6" height="6"/><rect x="178" y="88" width="6" height="6"/><rect x="187" y="88" width="6" height="6"/><rect x="196" y="88" width="6" height="6"/><rect x="205" y="88" width="6" height="6"/><rect x="214" y="88" width="6" height="6"/><rect x="223" y="88" width="6" height="6"/><rect x="232" y="88" width="6" height="6"/><rect x="241" y="88" width="6" height="6"/><rect x="250" y="88" width="6" height="6"/>
        <rect x="142" y="97" width="6" height="6"/><rect x="151" y="97" width="6" height="6"/><rect x="160" y="97" width="6" height="6"/><rect x="169" y="97" width="6" height="6"/><rect x="178" y="97" width="6" height="6"/><rect x="187" y="97" width="6" height="6"/><rect x="196" y="97" width="6" height="6"/><rect x="205" y="97" width="6" height="6"/><rect x="214" y="97" width="6" height="6"/><rect x="223" y="97" width="6" height="6"/><rect x="232" y="97" width="6" height="6"/><rect x="241" y="97" width="6" height="6"/><rect x="250" y="97" width="6" height="6"/>
        <rect x="142" y="106" width="6" height="6"/><rect x="151" y="106" width="6" height="6"/><rect x="160" y="106" width="6" height="6"/><rect x="169" y="106" width="6" height="6"/><rect x="178" y="106" width="6" height="6"/><rect x="187" y="106" width="6" height="6"/><rect x="196" y="106" width="6" height="6"/><rect x="205" y="106" width="6" height="6"/><rect x="214" y="106" width="6" height="6"/><rect x="223" y="106" width="6" height="6"/><rect x="232" y="106" width="6" height="6"/><rect x="241" y="106" width="6" height="6"/><rect x="250" y="106" width="6" height="6"/>
        <rect x="142" y="115" width="6" height="6"/><rect x="151" y="115" width="6" height="6"/><rect x="160" y="115" width="6" height="6"/><rect x="169" y="115" width="6" height="6"/><rect x="178" y="115" width="6" height="6"/><rect x="187" y="115" width="6" height="6"/><rect x="196" y="115" width="6" height="6"/><rect x="205" y="115" width="6" height="6"/><rect x="214" y="115" width="6" height="6"/><rect x="223" y="115" width="6" height="6"/><rect x="232" y="115" width="6" height="6"/><rect x="241" y="115" width="6" height="6"/><rect x="250" y="115" width="6" height="6"/>
        <rect x="142" y="124" width="6" height="6"/><rect x="151" y="124" width="6" height="6"/><rect x="160" y="124" width="6" height="6"/><rect x="169" y="124" width="6" height="6"/><rect x="178" y="124" width="6" height="6"/><rect x="187" y="124" width="6" height="6"/><rect x="196" y="124" width="6" height="6"/><rect x="205" y="124" width="6" height="6"/><rect x="214" y="124" width="6" height="6"/><rect x="223" y="124" width="6" height="6"/><rect x="232" y="124" width="6" height="6"/><rect x="241" y="124" width="6" height="6"/><rect x="250" y="124" width="6" height="6"/>
      </g>
    </g>
    <!-- wedge gap notch on the pie -->
    <path d="M200 92 L168 47 A56 56 0 0 1 232 47 Z" fill="hsl(160,38%,7%)" fill-opacity="0.55" stroke="hsl(160,75%,66%)" stroke-width="1" stroke-opacity="0.5" stroke-linejoin="round"/>
  </g>

  <!-- pulled-out wedge, forward, in the hand -->
  <g>
    <path d="M205 178 L168 122 A66 66 0 0 1 242 122 Z" fill="hsl(160,68%,55%)" fill-opacity="0.22"/>
    <g clip-path="url(#cv-indicator-index-funds-etfs-wedge)">
      <g fill="hsl(160,88%,82%)" fill-opacity="0.55">
        <rect x="170" y="120" width="6" height="6"/><rect x="179" y="120" width="6" height="6"/><rect x="188" y="120" width="6" height="6"/><rect x="197" y="120" width="6" height="6"/><rect x="206" y="120" width="6" height="6"/><rect x="215" y="120" width="6" height="6"/><rect x="224" y="120" width="6" height="6"/><rect x="233" y="120" width="6" height="6"/>
        <rect x="174" y="129" width="6" height="6"/><rect x="183" y="129" width="6" height="6"/><rect x="192" y="129" width="6" height="6"/><rect x="201" y="129" width="6" height="6"/><rect x="210" y="129" width="6" height="6"/><rect x="219" y="129" width="6" height="6"/><rect x="228" y="129" width="6" height="6"/>
        <rect x="179" y="138" width="6" height="6"/><rect x="188" y="138" width="6" height="6"/><rect x="197" y="138" width="6" height="6"/><rect x="206" y="138" width="6" height="6"/><rect x="215" y="138" width="6" height="6"/><rect x="224" y="138" width="6" height="6"/>
        <rect x="184" y="147" width="6" height="6"/><rect x="193" y="147" width="6" height="6"/><rect x="202" y="147" width="6" height="6"/><rect x="211" y="147" width="6" height="6"/><rect x="220" y="147" width="6" height="6"/>
        <rect x="189" y="156" width="6" height="6"/><rect x="198" y="156" width="6" height="6"/><rect x="207" y="156" width="6" height="6"/><rect x="216" y="156" width="6" height="6"/>
        <rect x="194" y="165" width="6" height="6"/><rect x="203" y="165" width="6" height="6"/><rect x="211" y="165" width="6" height="6"/>
      </g>
    </g>
    <path d="M205 178 L168 122 A66 66 0 0 1 242 122 Z" fill="none" stroke="hsl(160,75%,66%)" stroke-width="2" stroke-linejoin="round" stroke-linecap="round"/>
  </g>

  <!-- open upturned hand cradling the wedge -->
  <g fill="none" stroke="hsl(160,75%,66%)" stroke-width="2" stroke-linecap="round" stroke-linejoin="round">
    <path d="M150 174 Q150 200 178 204 L238 204 Q266 200 266 174" fill="hsl(160,68%,55%)" fill-opacity="0.13"/>
    <path d="M150 174 Q148 162 152 160 Q157 159 159 170"/>
    <path d="M266 174 Q268 162 264 160 Q259 159 257 170"/>
    <path d="M178 204 Q170 200 168 188"/>
    <path d="M238 204 Q246 200 248 188"/>
  </g>

  <!-- near-invisible price tag dangling to the side, fee fraction rounding toward zero -->
  <g stroke="hsl(160,22%,46%)" stroke-width="1" stroke-linecap="round" stroke-linejoin="round" opacity="0.75">
    <line x1="240" y1="138" x2="262" y2="152" stroke-dasharray="2 3"/>
    <path d="M262 150 L284 150 L292 159 L284 168 L262 168 Z" fill="hsl(160,68%,55%)" fill-opacity="0.08"/>
    <circle cx="268" cy="159" r="1.6" fill="hsl(160,88%,82%)" stroke="none"/>
    <!-- a tiny fraction-bar mark (rounding toward zero), no numerals -->
    <line x1="275" y1="159" x2="285" y2="159" stroke="hsl(160,88%,82%)" opacity="0.6"/>
    <circle cx="280" cy="155" r="0.8" fill="hsl(160,88%,82%)" stroke="none"/>
    <circle cx="280" cy="163" r="0.8" fill="hsl(160,88%,82%)" stroke="none"/>
  </g>
</svg>
